HIERARCHY
ROOT pelvis
{
  OFFSET 6.1229 87.9681 -138.714
  CHANNELS 6 Xposition Yposition Zposition Zrotation Xrotation Yrotation
  JOINT lfemur
  {
    OFFSET 0 11.9945 0
    CHANNELS 3 Zrotation Xrotation Yrotation
    JOINT ltibia
    {
      OFFSET 0 0 -41.4872
      CHANNELS 3 Zrotation Xrotation Yrotation
      JOINT lfoot
      {
        OFFSET 0 0 -39.7538
        CHANNELS 3 Zrotation Xrotation Yrotation
        JOINT ltoes
        {
          OFFSET 15.4382 0 0
          CHANNELS 3 Zrotation Xrotation Yrotation
          End Site
          {
            OFFSET 0 0 0
          }
        }
      }
    }
  }
  JOINT rfemur
  {
    OFFSET 0 -11.9945 0
    CHANNELS 3 Zrotation Xrotation Yrotation
    JOINT rtibia
    {
      OFFSET 0 0 -41.4872
      CHANNELS 3 Zrotation Xrotation Yrotation
      JOINT rfoot
      {
        OFFSET 0 0 -39.7538
        CHANNELS 3 Zrotation Xrotation Yrotation
        JOINT rtoes
        {
          OFFSET 15.4382 0 0
          CHANNELS 3 Zrotation Xrotation Yrotation
          End Site
          {
            OFFSET 0 0 0
          }
        }
      }
    }
  }
  JOINT thorax
  {
    OFFSET 2.876 -1.51056 9.05135
    CHANNELS 3 Zrotation Xrotation Yrotation
    JOINT head
    {
      OFFSET 4.15085 -2.12891 47.5037
      CHANNELS 3 Zrotation Xrotation Yrotation
      End Site
      {
        OFFSET 0 0 0
      }
    }
    JOINT lclavicle
    {
      OFFSET 0 0 42.6193
      CHANNELS 3 Zrotation Xrotation Yrotation
      JOINT lhumerus
      {
        OFFSET 0 19.157 -2.10407
        CHANNELS 3 Zrotation Xrotation Yrotation
        JOINT lradius
        {
          OFFSET 0 0 -26.2788
          CHANNELS 3 Zrotation Xrotation Yrotation
          JOINT lhand
          {
            OFFSET 0 0 -26.6372
            CHANNELS 3 Zrotation Xrotation Yrotation
            End Site
            {
              OFFSET 0 0 0
            }
          }
        }
      }
    }
    JOINT rclavicle
    {
      OFFSET 0 0 42.6193
      CHANNELS 3 Zrotation Xrotation Yrotation
      JOINT rhumerus
      {
        OFFSET 0 -19.157 -2.10407
        CHANNELS 3 Zrotation Xrotation Yrotation
        JOINT rradius
        {
          OFFSET 0 0 -26.2788
          CHANNELS 3 Zrotation Xrotation Yrotation
          JOINT rhand
          {
            OFFSET 0 0 -26.6372
            CHANNELS 3 Zrotation Xrotation Yrotation
            End Site
            {
              OFFSET 0 0 0
            }
          }
        }
      }
    }
  }
}
MOTION
Frames:	10
Frame Time:	0.0333333
6.0863 87.9656 -138.706 -94.0255 47.4657 -81.4967 23.0629 4.8345 -10.1643 -9.6157e-018 -3.97569e-016 -1.3855 1.76729 0.724379 22.2845 -6.8135e-015 7.15625e-015 -31.3447 -7.19596 1.07066 2.50331 -6.29462e-015 -2.38542e-015 1.66076 -6.28556 -1.43234 12.7859 -2.74322e-015 1.11319e-014 -42.4867 -8.40849 4.53606 -14.1034 55.5999 3.7677 8.23112 13.7899 0.759085 -0.187953 156.197 -35.9955 -24.3497 171.948 -18.1012 -114.477 -0.000529963 36.9122 -26.8142 9.30073 3.50464 -0.573579 39.3592 -4.09896 22.9903 -14.2476 -24.8528 -121.139 -4.37783e-005 32.4252 -13.5466 
5.96124 87.9538 -138.671 -94.0108 47.4636 -81.4904 23.7627 4.78171 -9.91977 6.39081e-015 7.95139e-016 -1.88975 1.20108 0.495766 22.4555 -1.3293e-014 8.74653e-015 -31.3504 -7.05199 1.10045 2.50825 -6.38792e-015 7.95139e-016 1.7237 -6.33551 -1.44234 12.7731 -2.15489e-014 9.54166e-015 -43.0252 -8.2789 4.59294 -14.0794 55.4614 3.63053 8.19128 13.0413 0.284842 -0.0679441 156.735 -36.5975 -24.9728 171.572 -18.4475 -115.089 -0.000614387 37.2583 -27.0976 9.27834 3.54423 -0.578626 39.4312 -4.17266 22.9936 -14.2389 -24.8055 -121.168 6.22706e-005 32.3856 -13.372 
5.89946 87.9341 -138.629 -94.0334 47.3903 -81.4528 24.059 4.74493 -9.6441 -3.48148e-017 -7.95139e-016 -2.50707 0.849886 0.354283 22.6631 -5.84453e-015 8.74653e-015 -31.3487 -7.17043 1.11883 2.57571 -3.15798e-015 -7.95139e-016 1.73103 -6.25172 -1.41693 12.719 -8.49588e-015 9.54166e-015 -43.0646 -8.30492 4.71342 -14.1149 55.2914 3.54286 8.2161 12.7708 0.136653 -0.0310142 156.95 -36.7219 -25.1447 171.543 -18.3407 -115.293 -0.000482654 37.2579 -26.9347 9.17755 3.4592 -0.558661 39.4937 -4.16353 22.9764 -14.2001 -24.6888 -121.208 -0.000391459 32.2698 -13.12 
5.83224 87.907 -138.583 -94.0646 47.277 -81.4049 24.3092 4.72606 -9.3983 -6.30589e-015 1.19271e-015 -3.09629 0.565399 0.238054 22.8744 2.0889e-015 9.54166e-015 -31.3518 -7.22224 1.16522 2.64489 6.36387e-015 0 1.68701 -6.27736 -1.41326 12.6383 -1.28471e-014 9.54166e-015 -43.0125 -8.3636 4.78036 -14.1538 55.2907 3.58556 8.27068 12.6855 0.184205 -0.0414185 157.108 -36.6634 -25.1159 171.697 -17.9759 -115.309 -0.00156638 37.0646 -26.4903 9.20639 3.43924 -0.557216 39.4467 -4.16062 22.9963 -14.2514 -24.7125 -121.281 -0.000129909 32.1532 -12.9786 
5.76252 87.8827 -138.604 -94.1026 47.2673 -81.3563 24.5603 4.73299 -9.22707 -3.24782e-015 -9.93923e-016 -3.52527 0.362532 0.154218 23.042 -5.35901e-015 9.54166e-015 -31.3591 -7.1467 1.23301 2.68833 6.34106e-015 7.95139e-016 1.62941 -6.40671 -1.4338 12.5625 -7.11507e-015 6.36111e-015 -43.0648 -8.36114 4.78245 -14.1833 55.3737 3.6724 8.34935 12.615 0.281307 -0.0629778 157.261 -36.5953 -25.0527 171.872 -17.627 -115.25 0.000302807 36.8117 -26.1195 9.33624 3.50023 -0.575092 39.3205 -4.17858 23.0645 -14.3692 -24.8604 -121.357 -5.44066e-005 32.0611 -12.9487 
5.72172 87.8677 -138.64 -94.1048 47.2694 -81.3706 24.5495 4.77945 -9.15884 3.25086e-015 9.93923e-016 -3.67089 0.418561 0.178565 23.1028 6.78346e-015 1.11319e-014 -31.3568 -7.1513 1.26957 2.71196 2.26211e-017 -7.95139e-016 1.62958 -6.38482 -1.42625 12.5403 -1.28555e-014 9.54166e-015 -43.2056 -8.2323 4.81406 -14.2346 55.1698 3.55016 8.47548 12.5101 0.265892 -0.0590644 157.252 -36.5748 -25.0293 171.911 -17.6425 -115.124 0.000456502 36.62 -26.358 9.30193 3.48432 -0.570366 39.275 -4.15769 23.1449 -14.3842 -24.889 -121.357 -1.44932e-005 31.9672 -12.8463 
5.69548 87.8645 -138.643 -94.0901 47.2531 -81.4174 24.3338 4.83742 -9.08951 -3.19988e-015 -1.98785e-016 -3.67589 0.585463 0.250051 23.1242 -2.3982e-014 9.54166e-015 -31.3568 -7.24985 1.26367 2.77288 6.36363e-015 0 1.61237 -6.32099 -1.41457 12.5636 1.86296e-015 1.11319e-014 -43.805 -7.63677 5.09956 -14.3424 54.6085 3.25593 8.91156 11.8491 -0.310762 0.0605881 157.228 -36.5865 -25.217 172.126 -17.1586 -115.116 0.00133058 37.0697 -25.9321 8.93663 3.26508 -0.513774 39.1153 -4.28764 23.4459 -14.5639 -25.1521 -121.437 9.36131e-005 31.9195 -13.1095 
5.67679 87.8731 -138.638 -94.0547 47.2281 -81.4973 24.2538 4.86286 -9.01778 -9.45913e-015 1.59028e-015 -3.67807 0.627822 0.268797 23.1772 -1.15065e-014 5.56597e-015 -31.3568 -7.34148 1.22589 2.85035 -2.2258e-017 7.95139e-016 1.60344 -6.24907 -1.40058 12.583 -2.02222e-014 1.11319e-014 -44.1476 -6.42045 5.67521 -14.5747 53.5403 2.82954 9.71934 10.8862 -1.19488 0.220457 157.066 -36.26 -25.3793 172.311 -16.782 -115.06 0.000224484 37.2735 -25.7781 7.87196 2.63386 -0.372832 39.0968 -4.52818 23.8849 -14.5615 -25.0033 -121.575 -3.37829e-006 31.959 -13.2145 
5.66033 87.8766 -138.641 -94.0144 47.1799 -81.5809 24.1779 4.87882 -8.99424 3.13629e-015 -7.95139e-016 -3.65095 0.651733 0.279864 23.2375 -2.0742e-014 8.74653e-015 -31.3568 -7.3565 1.21 2.9072 9.54537e-015 0 1.59764 -6.30995 -1.41801 12.614 -1.13569e-014 1.11319e-014 -44.377 -5.5767 6.09222 -14.7318 52.772 2.53393 10.2787 10.2714 -1.80187 0.325427 156.889 -35.9866 -25.4754 172.446 -16.5318 -114.987 0.000216664 37.399 -25.6329 7.04856 2.12376 -0.2651 39.1197 -4.67838 24.1571 -14.4546 -24.7157 -121.655 5.33177e-006 32.0733 -13.2394 
5.66952 87.8761 -138.675 -93.9921 47.0945 -81.6288 24.0303 4.90626 -9.02873 -3.18672e-015 0 -3.56437 0.70333 0.302154 23.2498 -8.59928e-015 1.03368e-014 -31.3568 -7.32107 1.22631 2.94698 -6.34153e-015 -7.95139e-016 1.58592 -6.46643 -1.45729 12.6466 3.35229e-015 7.95139e-015 -44.4884 -5.37299 6.21721 -14.766 52.5279 2.44218 10.4379 10.1309 -1.97378 0.352608 156.763 -35.8716 -25.5021 172.538 -16.3722 -114.922 9.93864e-005 37.3562 -25.4695 6.77736 1.94381 -0.230956 39.1345 -4.73144 24.2268 -14.374 -24.5349 -121.681 -3.30553e-005 32.1979 -13.2513 
